<svg viewBox="0 0 1029 900" fill="none" xmlns="http://www.w3.org/2000/svg"><path d="M1024.31 432.16L787.068 21.32C779.328 8.16 765.428 0.12 750.128 0H275.588C262.688 0.12 250.728 6.94 244.368 17.94L4.76815 432.02C-1.69185 443.18 -1.53185 456.78 4.90815 467.82L241.888 878.76C249.628 891.92 263.708 899.98 278.808 900H753.608C766.408 900.06 778.208 893.12 784.568 882.14L1024.17 468.06C1030.53 457.08 1030.49 443.3 1024.15 432.08L1024.31 432.18V432.16ZM854.948 464.14L697.008 737.36C691.948 746.12 682.748 751.34 672.608 751.46L389.208 751.52C367.608 751.66 354.008 728.02 364.828 709.3L510.248 457.74C515.408 448.82 515.268 437.96 510.008 429.22L509.728 429.3L366.228 191.32C354.828 172.6 368.448 148.64 390.408 148.7L672.648 148.66C682.688 148.72 691.968 154.06 697.048 162.72L854.948 436.04C860.028 444.7 860.008 455.44 854.948 464.2V464.14Z" fill="#363A5B"/></svg>