<?xml version="1.0" encoding="UTF-8"?>
<svg id="Layer_1" data-name="Layer 1" xmlns="http://www.w3.org/2000/svg" viewBox="0 0 414.18 75">
  <defs>
    <style>
      .cls-1 {
        fill: #0051ff;
        fill-rule: evenodd;
      }
    </style>
  </defs>
  <path class="cls-1" d="M-.3,0v73.45h27.94v-12.5h-14.71v-19.12h13.24v-11.76h-13.24V12.5h14.71V0H-.3ZM77.27,34.48c6.05-3.43,9.8-9.07,9.8-15.77,0-10.87-7.76-18.71-22.3-18.71h-26.63v73.45h27.12c15.6,0,24.35-9.97,24.35-22.06-.08-7.68-4.17-13.56-12.34-16.91ZM62.15,12.5c8.33,0,12.01,3.43,12.01,8.5,0,5.47-4.82,9.15-13.24,9.15h-9.56V12.5h10.78ZM61.83,60.95h-10.46v-19.12h10.46c10.05,0,14.13,3.51,14.13,9.07s-4.08,10.05-14.13,10.05ZM356.31,37.66l58.17,36.6h-24.75l-46.57-29.33-44.28,29.33h-22.63l55.31-36.6-34.72-21.9c-2.78-1.72-5.47-3.19-8.82-3.19-5.47,0-10.13,3.59-10.13,10.87v31.37c0,13.32-6.21,20.18-17.48,20.18-6.86,0-12.66-3.19-18.22-9.31l-45.92-51.06c-1.55-1.63-2.7-2.12-4-2.12-2.29,0-4.09,1.47-4.09,4.66v41.67c0,11.36-6.54,16.18-15.03,16.18-7.11,0-11.68-3.27-16.01-8.99l-6.54-8.66h-37.34v16.83h-13.15V17.32c0-11.27,5.96-17.32,15.61-17.32,5.55,0,10.38,2.7,15.44,9.4l38.81,51.55c.82,1.06,1.72,1.55,2.61,1.55,1.39,0,2.45-1.06,2.45-3.02V18.79C175.02,6.29,182.7.08,191.93.08c6.37,0,11.93,3.27,16.09,7.92l46.49,51.63c1.96,2.12,3.76,2.94,5.39,2.94,2.69,0,4.74-2.04,4.74-5.47V24.75c0-16.75,9.48-24.67,23.53-24.67,5.64,0,11.77,2.04,17.48,5.64l39.05,24.59L389.32.82h22.63l-55.64,36.85ZM113.26,15.44v30.15h28.43l-23.78-31.54c-.74-1.06-1.47-1.47-2.45-1.47-1.14,0-2.21.82-2.21,2.86Z"/>
</svg>