<?xml version="1.0" encoding="UTF-8"?>
<svg id="a" data-name="Layer_1" xmlns="http://www.w3.org/2000/svg" width="192" height="192" viewBox="0 0 192 192">
  <path d="M132.9503,176H59.0499c-5.7163,0-10.998-3.0498-13.8564-8L8.2427,104c-2.8579-4.9502-2.8579-11.0498,0-16L45.1934,24c2.8584-4.9502,8.1401-8,13.8564-8h73.9004c5.7158,0,10.998,3.0498,13.8564,8l36.9502,64c2.8584,4.9502,2.8584,11.0498,0,16l-36.9502,64c-2.8584,4.9502-8.1406,8-13.8564,8Z" style="fill: #04f;"/>
  <g>
    <path d="M53,144c-.1289,0-.2588-.0244-.3828-.0762-.374-.1543-.6172-.5195-.6172-.9238v-74c0-3.8599,3.1406-7,7-7h49.9998c.4043,0,.7695.2437.9238.6172.1553.374.0693.8037-.2168,1.0898l-12,12c-.1875.1875-.4414.293-.707.293h-30.9999v12h28.9999c.4043,0,.7695.2437.9238.6172.1553.374.0693.8037-.2168,1.0898l-12,12c-.1875.1875-.4414.293-.707.293h-16.9999v29c0,.2651-.1055.5195-.293.707l-12,12c-.1914.1914-.4473.293-.707.293Z" style="fill: #fff;"/>
    <path d="M139,48c.1289,0,.2588.0244.3828.0762.374.1543.6172.5195.6172.9238v74c0,3.8599-3.1406,7-7,7h-49.9998c-.4043,0-.7695-.2437-.9238-.6172-.1553-.374-.0693-.8037.2168-1.0898l12-12c.1875-.1875.4414-.293.707-.293h30.9999s0-12,0-12h-28.9999c-.4043,0-.7695-.2437-.9238-.6172-.1553-.374-.0693-.8037.2168-1.0898l12-12c.1875-.1875.4414-.293.707-.293h16.9999s0-29,0-29c0-.2651.1055-.5195.293-.707l12-12c.1914-.1914.4473-.293.707-.293Z" style="fill: #fff;"/>
  </g>
</svg>