<svg width="180" height="180" viewBox="0 0 180 180" fill="none" xmlns="http://www.w3.org/2000/svg">
<path d="M133.574 159.701H46.4249C39.4178 159.693 32.7002 156.93 27.7461 152.021C22.7921 147.112 20.0063 140.456 20 133.513V47.18C20.0063 40.2385 22.7924 33.5831 27.7467 28.6748C32.701 23.7664 39.4185 21.0062 46.4249 21H133.574C140.58 21.0083 147.297 23.7692 152.25 28.6771C157.205 33.585 159.991 40.2391 160 47.18V133.482C160.001 140.43 157.219 147.094 152.264 152.01C147.309 156.927 140.587 159.693 133.574 159.701ZM46.4249 39.3942C44.3469 39.3962 42.3544 40.2144 40.8843 41.6695C39.4142 43.1245 38.5864 45.0976 38.5822 47.1565V133.482C38.5843 135.543 39.4109 137.519 40.881 138.977C42.3512 140.435 44.3447 141.256 46.4249 141.26H133.574C135.655 141.256 137.648 140.435 139.118 138.977C140.588 137.519 141.415 135.543 141.417 133.482V47.1485C141.413 45.0898 140.585 43.1167 139.115 41.6617C137.645 40.2066 135.653 39.3883 133.574 39.3864L46.4249 39.3942Z" fill="#1E3A5F"/>
<path d="M123.185 125.64C122.979 119.368 122.298 103.64 98.6513 85.7315C85.4349 75.7112 84.6832 58.4147 84.7466 54.5728H60.213C60.213 69.0075 59.4215 84.3673 80.5045 98.802C95.652 109.214 98.4773 122.7 98.6513 125.64H123.185Z" fill="#1E3A5F"/>
</svg>
